# xmcd
#
# Track frame offsets: 
#        182
#        16767
#        35820
#        54525
#        73212
#        94377
#        107532
#        130205
#        144045
#        158060
#        176315
#        192850
#
# Disc length: 2797 seconds
#
# Revision: 23
# Processed by: cddbd v1.5.2PL0 Copyright (c) Steve Scherf et al.
# Submitted via: ExactAudioCopy v1.3
#
DISCID=9c0aeb0c
DTITLE=Collective Soul - Disciplined Breakdown
DYEAR=1997
DGENRE=Post-grunge
TTITLE0=Precious Declaration
TTITLE1=Listen
TTITLE2=Maybe
TTITLE3=Full Circle
TTITLE4=Blame
TTITLE5=Disciplined Breakdown
TTITLE6=Forgiveness
TTITLE7=Link
TTITLE8=Giving
TTITLE9=In Between
TTITLE10=Crowded Head
TTITLE11=Everything
EXTD=YEAR: 1997
EXTT0=
EXTT1=
EXTT2=
EXTT3=
EXTT4=
EXTT5=
EXTT6=
EXTT7=
EXTT8=
EXTT9=
EXTT10=
EXTT11=
PLAYORDER=
